<svg width="477" height="110" viewBox="0 0 477 110" fill="none" xmlns="http://www.w3.org/2000/svg">
<path d="M21.204 37.397V33.569H26.121C27.155 33.569 27.947 33.305 28.497 32.777C29.069 32.249 29.355 31.534 29.355 30.632C29.355 29.796 29.08 29.103 28.53 28.553C27.98 28.003 27.188 27.728 26.154 27.728H21.204V23.702H26.748C28.288 23.702 29.641 23.999 30.807 24.593C31.973 25.165 32.886 25.968 33.546 27.002C34.206 28.036 34.536 29.224 34.536 30.566C34.536 31.93 34.206 33.129 33.546 34.163C32.886 35.175 31.962 35.967 30.774 36.539C29.586 37.111 28.189 37.397 26.583 37.397H21.204ZM17.244 47V23.702H22.425V47H17.244ZM29.916 47L22.656 36.968L27.408 35.681L36.054 47H29.916ZM45.3592 47.363C43.6212 47.363 42.0702 47.011 40.7062 46.307C39.3642 45.581 38.3082 44.58 37.5382 43.304C36.7682 42.028 36.3832 40.587 36.3832 38.981C36.3832 37.375 36.7572 35.945 37.5052 34.691C38.2752 33.415 39.3092 32.414 40.6072 31.688C41.9052 30.962 43.3682 30.599 44.9962 30.599C46.5802 30.599 47.9772 30.94 49.1872 31.622C50.3972 32.304 51.3432 33.25 52.0252 34.46C52.7292 35.67 53.0812 37.056 53.0812 38.618C53.0812 38.904 53.0592 39.212 53.0152 39.542C52.9932 39.85 52.9382 40.213 52.8502 40.631L39.0232 40.664V37.199L50.7052 37.166L48.5272 38.618C48.5052 37.694 48.3622 36.935 48.0982 36.341C47.8342 35.725 47.4382 35.263 46.9102 34.955C46.4042 34.625 45.7772 34.46 45.0292 34.46C44.2372 34.46 43.5442 34.647 42.9502 35.021C42.3782 35.373 41.9272 35.879 41.5972 36.539C41.2892 37.199 41.1352 38.002 41.1352 38.948C41.1352 39.894 41.3002 40.708 41.6302 41.39C41.9822 42.05 42.4662 42.567 43.0822 42.941C43.7202 43.293 44.4682 43.469 45.3262 43.469C46.1182 43.469 46.8332 43.337 47.4712 43.073C48.1092 42.787 48.6702 42.369 49.1542 41.819L51.9262 44.591C51.1342 45.515 50.1772 46.208 49.0552 46.67C47.9332 47.132 46.7012 47.363 45.3592 47.363ZM66.1113 47V37.859C66.1113 37.023 65.8473 36.352 65.3193 35.846C64.8133 35.318 64.1643 35.054 63.3723 35.054C62.8223 35.054 62.3383 35.175 61.9203 35.417C61.5023 35.637 61.1723 35.967 60.9303 36.407C60.6883 36.825 60.5673 37.309 60.5673 37.859L58.6203 36.902C58.6203 35.648 58.8953 34.548 59.4453 33.602C59.9953 32.656 60.7543 31.93 61.7223 31.424C62.7123 30.896 63.8233 30.632 65.0553 30.632C66.2433 30.632 67.2883 30.918 68.1903 31.49C69.1143 32.04 69.8403 32.777 70.3683 33.701C70.8963 34.625 71.1603 35.637 71.1603 36.737V47H66.1113ZM55.5183 47V30.962H60.5673V47H55.5183ZM82.3231 47.363C80.5851 47.363 79.0341 47.011 77.6701 46.307C76.3281 45.581 75.2721 44.58 74.5021 43.304C73.7321 42.028 73.3471 40.587 73.3471 38.981C73.3471 37.375 73.7211 35.945 74.4691 34.691C75.2391 33.415 76.2731 32.414 77.5711 31.688C78.8691 30.962 80.3321 30.599 81.9601 30.599C83.5441 30.599 84.9411 30.94 86.1511 31.622C87.3611 32.304 88.3071 33.25 88.9891 34.46C89.6931 35.67 90.0451 37.056 90.0451 38.618C90.0451 38.904 90.0231 39.212 89.9791 39.542C89.9571 39.85 89.9021 40.213 89.8141 40.631L75.9871 40.664V37.199L87.6691 37.166L85.4911 38.618C85.4691 37.694 85.3261 36.935 85.0621 36.341C84.7981 35.725 84.4021 35.263 83.8741 34.955C83.3681 34.625 82.7411 34.46 81.9931 34.46C81.2011 34.46 80.5081 34.647 79.9141 35.021C79.3421 35.373 78.8911 35.879 78.5611 36.539C78.2531 37.199 78.0991 38.002 78.0991 38.948C78.0991 39.894 78.2641 40.708 78.5941 41.39C78.9461 42.05 79.4301 42.567 80.0461 42.941C80.6841 43.293 81.4321 43.469 82.2901 43.469C83.0821 43.469 83.7971 43.337 84.4351 43.073C85.0731 42.787 85.6341 42.369 86.1181 41.819L88.8901 44.591C88.0981 45.515 87.1411 46.208 86.0191 46.67C84.8971 47.132 83.6651 47.363 82.3231 47.363ZM96.2158 47L90.6718 30.962H95.6218L99.0538 42.611L97.6018 42.644L101.397 30.962H105.489L109.317 42.644L107.832 42.611L111.297 30.962H116.247L110.703 47H106.578L102.849 35.912H104.103L100.308 47H96.2158ZM96.8464 87.363C94.9324 87.363 93.2824 87.055 91.8964 86.439C90.5324 85.801 89.2784 84.844 88.1344 83.568L91.5004 80.235C92.2484 81.093 93.0734 81.764 93.9754 82.248C94.8994 82.71 95.9664 82.941 97.1764 82.941C98.2764 82.941 99.1234 82.743 99.7174 82.347C100.333 81.951 100.641 81.401 100.641 80.697C100.641 80.059 100.443 79.542 100.047 79.146C99.6514 78.75 99.1234 78.409 98.4634 78.123C97.8254 77.837 97.1104 77.562 96.3184 77.298C95.5484 77.034 94.7784 76.737 94.0084 76.407C93.2384 76.055 92.5234 75.626 91.8634 75.12C91.2254 74.592 90.7084 73.943 90.3124 73.173C89.9164 72.381 89.7184 71.391 89.7184 70.203C89.7184 68.773 90.0594 67.541 90.7414 66.507C91.4454 65.473 92.4134 64.692 93.6454 64.164C94.8774 63.614 96.2964 63.339 97.9024 63.339C99.5304 63.339 101.015 63.625 102.357 64.197C103.721 64.769 104.843 65.55 105.723 66.54L102.357 69.873C101.653 69.147 100.938 68.608 100.212 68.256C99.5084 67.904 98.7054 67.728 97.8034 67.728C96.9014 67.728 96.1864 67.904 95.6584 68.256C95.1304 68.586 94.8664 69.07 94.8664 69.708C94.8664 70.302 95.0644 70.786 95.4604 71.16C95.8564 71.512 96.3734 71.82 97.0114 72.084C97.6714 72.348 98.3864 72.612 99.1564 72.876C99.9484 73.14 100.729 73.448 101.499 73.8C102.269 74.152 102.973 74.603 103.611 75.153C104.271 75.681 104.799 76.363 105.195 77.199C105.591 78.013 105.789 79.025 105.789 80.235C105.789 82.457 104.997 84.206 103.413 85.482C101.829 86.736 99.6404 87.363 96.8464 87.363ZM108.628 87V70.962H113.677V87H108.628ZM118.891 87V77.628C118.891 76.814 118.638 76.187 118.132 75.747C117.648 75.285 117.043 75.054 116.317 75.054C115.811 75.054 115.36 75.164 114.964 75.384C114.568 75.582 114.249 75.868 114.007 76.242C113.787 76.616 113.677 77.078 113.677 77.628L111.73 76.77C111.73 75.494 112.005 74.405 112.555 73.503C113.105 72.579 113.853 71.875 114.799 71.391C115.745 70.885 116.812 70.632 118 70.632C119.122 70.632 120.123 70.885 121.003 71.391C121.905 71.897 122.62 72.601 123.148 73.503C123.676 74.405 123.94 75.483 123.94 76.737V87H118.891ZM129.154 87V77.628C129.154 76.814 128.901 76.187 128.395 75.747C127.911 75.285 127.306 75.054 126.58 75.054C126.074 75.054 125.623 75.164 125.227 75.384C124.831 75.582 124.512 75.868 124.27 76.242C124.05 76.616 123.94 77.078 123.94 77.628L121.036 77.232C121.08 75.868 121.399 74.702 121.993 73.734C122.609 72.744 123.412 71.985 124.402 71.457C125.414 70.907 126.547 70.632 127.801 70.632C129.033 70.632 130.122 70.896 131.068 71.424C132.036 71.93 132.795 72.667 133.345 73.635C133.917 74.581 134.203 75.725 134.203 77.067V87H129.154ZM144.137 87.33C142.663 87.33 141.343 86.967 140.177 86.241C139.033 85.515 138.12 84.525 137.438 83.271C136.778 82.017 136.448 80.587 136.448 78.981C136.448 77.375 136.778 75.945 137.438 74.691C138.12 73.437 139.033 72.447 140.177 71.721C141.343 70.995 142.663 70.632 144.137 70.632C145.215 70.632 146.183 70.841 147.041 71.259C147.921 71.677 148.636 72.26 149.186 73.008C149.736 73.734 150.044 74.57 150.11 75.516V82.446C150.044 83.392 149.736 84.239 149.186 84.987C148.658 85.713 147.954 86.285 147.074 86.703C146.194 87.121 145.215 87.33 144.137 87.33ZM145.16 82.776C146.238 82.776 147.107 82.424 147.767 81.72C148.427 80.994 148.757 80.081 148.757 78.981C148.757 78.233 148.603 77.573 148.295 77.001C148.009 76.429 147.591 75.989 147.041 75.681C146.513 75.351 145.897 75.186 145.193 75.186C144.489 75.186 143.862 75.351 143.312 75.681C142.784 75.989 142.355 76.429 142.025 77.001C141.717 77.573 141.563 78.233 141.563 78.981C141.563 79.707 141.717 80.356 142.025 80.928C142.333 81.5 142.762 81.951 143.312 82.281C143.862 82.611 144.478 82.776 145.16 82.776ZM148.559 87V82.677L149.318 78.783L148.559 74.889V70.962H153.509V87H148.559ZM157.064 87V70.962H162.113V87H157.064ZM162.113 78.189L160.001 76.539C160.419 74.669 161.123 73.217 162.113 72.183C163.103 71.149 164.478 70.632 166.238 70.632C167.008 70.632 167.679 70.753 168.251 70.995C168.845 71.215 169.362 71.567 169.802 72.051L166.799 75.846C166.579 75.604 166.304 75.417 165.974 75.285C165.644 75.153 165.27 75.087 164.852 75.087C164.016 75.087 163.345 75.351 162.839 75.879C162.355 76.385 162.113 77.155 162.113 78.189ZM173.585 87V64.329H178.634V87H173.585ZM169.955 75.252V70.962H182.264V75.252H169.955ZM210.508 87.363C208.77 87.363 207.153 87.066 205.657 86.472C204.183 85.856 202.885 84.998 201.763 83.898C200.663 82.798 199.805 81.522 199.189 80.07C198.573 78.596 198.265 77.012 198.265 75.318C198.265 73.624 198.573 72.051 199.189 70.599C199.805 69.125 200.663 67.849 201.763 66.771C202.863 65.693 204.15 64.857 205.624 64.263C207.12 63.647 208.737 63.339 210.475 63.339C212.323 63.339 213.962 63.636 215.392 64.23C216.844 64.824 218.109 65.638 219.187 66.672L215.722 70.17C215.106 69.51 214.358 68.993 213.478 68.619C212.62 68.245 211.619 68.058 210.475 68.058C209.463 68.058 208.528 68.234 207.67 68.586C206.834 68.916 206.108 69.4 205.492 70.038C204.898 70.676 204.425 71.446 204.073 72.348C203.743 73.25 203.578 74.24 203.578 75.318C203.578 76.418 203.743 77.419 204.073 78.321C204.425 79.223 204.898 79.993 205.492 80.631C206.108 81.269 206.834 81.764 207.67 82.116C208.528 82.468 209.463 82.644 210.475 82.644C211.663 82.644 212.697 82.457 213.577 82.083C214.457 81.709 215.216 81.192 215.854 80.532L219.352 84.03C218.23 85.064 216.943 85.878 215.491 86.472C214.061 87.066 212.4 87.363 210.508 87.363ZM228.871 87.363C227.397 87.363 226.088 87.066 224.944 86.472C223.822 85.856 222.942 85.02 222.304 83.964C221.666 82.886 221.347 81.654 221.347 80.268V70.962H226.396V80.202C226.396 80.752 226.484 81.225 226.66 81.621C226.858 82.017 227.144 82.325 227.518 82.545C227.892 82.765 228.343 82.875 228.871 82.875C229.619 82.875 230.213 82.644 230.653 82.182C231.093 81.698 231.313 81.038 231.313 80.202V70.962H236.362V80.235C236.362 81.643 236.043 82.886 235.405 83.964C234.767 85.02 233.887 85.856 232.765 86.472C231.643 87.066 230.345 87.363 228.871 87.363ZM245.373 87.396C244.427 87.396 243.492 87.275 242.568 87.033C241.666 86.791 240.819 86.45 240.027 86.01C239.257 85.548 238.597 85.02 238.047 84.426L240.918 81.522C241.446 82.094 242.073 82.545 242.799 82.875C243.525 83.183 244.317 83.337 245.175 83.337C245.769 83.337 246.22 83.249 246.528 83.073C246.858 82.897 247.023 82.655 247.023 82.347C247.023 81.951 246.825 81.654 246.429 81.456C246.055 81.236 245.571 81.049 244.977 80.895C244.383 80.719 243.756 80.532 243.096 80.334C242.436 80.136 241.809 79.861 241.215 79.509C240.621 79.157 240.137 78.673 239.763 78.057C239.389 77.419 239.202 76.616 239.202 75.648C239.202 74.614 239.466 73.723 239.994 72.975C240.522 72.205 241.27 71.6 242.238 71.16C243.206 70.72 244.339 70.5 245.637 70.5C247.001 70.5 248.255 70.742 249.399 71.226C250.565 71.688 251.511 72.381 252.237 73.305L249.366 76.209C248.86 75.615 248.288 75.197 247.65 74.955C247.034 74.713 246.429 74.592 245.835 74.592C245.263 74.592 244.834 74.68 244.548 74.856C244.262 75.01 244.119 75.241 244.119 75.549C244.119 75.879 244.306 76.143 244.68 76.341C245.054 76.539 245.538 76.715 246.132 76.869C246.726 77.023 247.353 77.21 248.013 77.43C248.673 77.65 249.3 77.947 249.894 78.321C250.488 78.695 250.972 79.201 251.346 79.839C251.72 80.455 251.907 81.269 251.907 82.281C251.907 83.843 251.313 85.086 250.125 86.01C248.959 86.934 247.375 87.396 245.373 87.396ZM256.923 87V64.329H261.972V87H256.923ZM253.293 75.252V70.962H265.602V75.252H253.293ZM275.227 87.363C273.577 87.363 272.081 87 270.739 86.274C269.419 85.526 268.374 84.514 267.604 83.238C266.834 81.962 266.449 80.532 266.449 78.948C266.449 77.364 266.834 75.945 267.604 74.691C268.374 73.437 269.419 72.447 270.739 71.721C272.059 70.973 273.555 70.599 275.227 70.599C276.899 70.599 278.395 70.962 279.715 71.688C281.035 72.414 282.08 73.415 282.85 74.691C283.62 75.945 284.005 77.364 284.005 78.948C284.005 80.532 283.62 81.962 282.85 83.238C282.08 84.514 281.035 85.526 279.715 86.274C278.395 87 276.899 87.363 275.227 87.363ZM275.227 82.776C275.953 82.776 276.591 82.622 277.141 82.314C277.691 81.984 278.109 81.533 278.395 80.961C278.703 80.367 278.857 79.696 278.857 78.948C278.857 78.2 278.703 77.551 278.395 77.001C278.087 76.429 277.658 75.989 277.108 75.681C276.58 75.351 275.953 75.186 275.227 75.186C274.523 75.186 273.896 75.351 273.346 75.681C272.796 75.989 272.367 76.429 272.059 77.001C271.751 77.573 271.597 78.233 271.597 78.981C271.597 79.707 271.751 80.367 272.059 80.961C272.367 81.533 272.796 81.984 273.346 82.314C273.896 82.622 274.523 82.776 275.227 82.776ZM286.518 87V70.962H291.567V87H286.518ZM296.781 87V77.628C296.781 76.814 296.528 76.187 296.022 75.747C295.538 75.285 294.933 75.054 294.207 75.054C293.701 75.054 293.25 75.164 292.854 75.384C292.458 75.582 292.139 75.868 291.897 76.242C291.677 76.616 291.567 77.078 291.567 77.628L289.62 76.77C289.62 75.494 289.895 74.405 290.445 73.503C290.995 72.579 291.743 71.875 292.689 71.391C293.635 70.885 294.702 70.632 295.89 70.632C297.012 70.632 298.013 70.885 298.893 71.391C299.795 71.897 300.51 72.601 301.038 73.503C301.566 74.405 301.83 75.483 301.83 76.737V87H296.781ZM307.044 87V77.628C307.044 76.814 306.791 76.187 306.285 75.747C305.801 75.285 305.196 75.054 304.47 75.054C303.964 75.054 303.513 75.164 303.117 75.384C302.721 75.582 302.402 75.868 302.16 76.242C301.94 76.616 301.83 77.078 301.83 77.628L298.926 77.232C298.97 75.868 299.289 74.702 299.883 73.734C300.499 72.744 301.302 71.985 302.292 71.457C303.304 70.907 304.437 70.632 305.691 70.632C306.923 70.632 308.012 70.896 308.958 71.424C309.926 71.93 310.685 72.667 311.235 73.635C311.807 74.581 312.093 75.725 312.093 77.067V87H307.044Z" fill="#229EBF"/>
<path d="M131.172 38.321L122.196 23.702H128.202L135.099 35.516H131.238L138.135 23.702H144.009L134.967 38.321H131.172ZM130.545 47V35.945H135.726V47H130.545ZM149.221 47.363C147.571 47.363 146.075 47 144.733 46.274C143.413 45.526 142.368 44.514 141.598 43.238C140.828 41.962 140.443 40.532 140.443 38.948C140.443 37.364 140.828 35.945 141.598 34.691C142.368 33.437 143.413 32.447 144.733 31.721C146.053 30.973 147.549 30.599 149.221 30.599C150.893 30.599 152.389 30.962 153.709 31.688C155.029 32.414 156.074 33.415 156.844 34.691C157.614 35.945 157.999 37.364 157.999 38.948C157.999 40.532 157.614 41.962 156.844 43.238C156.074 44.514 155.029 45.526 153.709 46.274C152.389 47 150.893 47.363 149.221 47.363ZM149.221 42.776C149.947 42.776 150.585 42.622 151.135 42.314C151.685 41.984 152.103 41.533 152.389 40.961C152.697 40.367 152.851 39.696 152.851 38.948C152.851 38.2 152.697 37.551 152.389 37.001C152.081 36.429 151.652 35.989 151.102 35.681C150.574 35.351 149.947 35.186 149.221 35.186C148.517 35.186 147.89 35.351 147.34 35.681C146.79 35.989 146.361 36.429 146.053 37.001C145.745 37.573 145.591 38.233 145.591 38.981C145.591 39.707 145.745 40.367 146.053 40.961C146.361 41.533 146.79 41.984 147.34 42.314C147.89 42.622 148.517 42.776 149.221 42.776ZM167.64 47.363C166.166 47.363 164.857 47.066 163.713 46.472C162.591 45.856 161.711 45.02 161.073 43.964C160.435 42.886 160.116 41.654 160.116 40.268V30.962H165.165V40.202C165.165 40.752 165.253 41.225 165.429 41.621C165.627 42.017 165.913 42.325 166.287 42.545C166.661 42.765 167.112 42.875 167.64 42.875C168.388 42.875 168.982 42.644 169.422 42.182C169.862 41.698 170.082 41.038 170.082 40.202V30.962H175.131V40.235C175.131 41.643 174.812 42.886 174.174 43.964C173.536 45.02 172.656 45.856 171.534 46.472C170.412 47.066 169.114 47.363 167.64 47.363ZM178.302 47V30.962H183.351V47H178.302ZM183.351 38.189L181.239 36.539C181.657 34.669 182.361 33.217 183.351 32.183C184.341 31.149 185.716 30.632 187.476 30.632C188.246 30.632 188.917 30.753 189.489 30.995C190.083 31.215 190.6 31.567 191.04 32.051L188.037 35.846C187.817 35.604 187.542 35.417 187.212 35.285C186.882 35.153 186.508 35.087 186.09 35.087C185.254 35.087 184.583 35.351 184.077 35.879C183.593 36.385 183.351 37.155 183.351 38.189ZM203.209 47V42.446H208.984C210.392 42.446 211.624 42.171 212.68 41.621C213.736 41.049 214.55 40.224 215.122 39.146C215.694 38.068 215.98 36.792 215.98 35.318C215.98 33.844 215.683 32.579 215.089 31.523C214.517 30.467 213.703 29.653 212.647 29.081C211.613 28.509 210.392 28.223 208.984 28.223H203.044V23.702H209.05C210.81 23.702 212.427 23.988 213.901 24.56C215.397 25.11 216.695 25.913 217.795 26.969C218.917 28.003 219.775 29.235 220.369 30.665C220.985 32.073 221.293 33.635 221.293 35.351C221.293 37.045 220.985 38.607 220.369 40.037C219.775 41.467 218.928 42.699 217.828 43.733C216.728 44.767 215.43 45.57 213.934 46.142C212.46 46.714 210.854 47 209.116 47H203.209ZM199.711 47V23.702H204.892V47H199.711ZM224.128 47V30.962H229.177V47H224.128ZM226.669 28.751C225.877 28.751 225.217 28.487 224.689 27.959C224.183 27.409 223.93 26.749 223.93 25.979C223.93 25.187 224.183 24.527 224.689 23.999C225.217 23.471 225.877 23.207 226.669 23.207C227.461 23.207 228.11 23.471 228.616 23.999C229.122 24.527 229.375 25.187 229.375 25.979C229.375 26.749 229.122 27.409 228.616 27.959C228.11 28.487 227.461 28.751 226.669 28.751ZM239.53 54.194C237.77 54.194 236.219 53.886 234.877 53.27C233.557 52.676 232.512 51.829 231.742 50.729L234.844 47.627C235.416 48.309 236.054 48.826 236.758 49.178C237.484 49.53 238.353 49.706 239.365 49.706C240.619 49.706 241.598 49.398 242.302 48.782C243.028 48.166 243.391 47.297 243.391 46.175V42.083L244.249 38.585L243.49 35.087V30.962H248.44V46.043C248.44 47.693 248.055 49.123 247.285 50.333C246.515 51.543 245.459 52.489 244.117 53.171C242.775 53.853 241.246 54.194 239.53 54.194ZM239.299 46.505C237.825 46.505 236.516 46.153 235.372 45.449C234.228 44.745 233.326 43.788 232.666 42.578C232.006 41.368 231.676 40.026 231.676 38.552C231.676 37.056 232.006 35.714 232.666 34.526C233.326 33.316 234.228 32.37 235.372 31.688C236.516 30.984 237.825 30.632 239.299 30.632C240.399 30.632 241.378 30.841 242.236 31.259C243.116 31.655 243.82 32.227 244.348 32.975C244.898 33.701 245.206 34.548 245.272 35.516V41.621C245.206 42.567 244.898 43.414 244.348 44.162C243.82 44.888 243.116 45.46 242.236 45.878C241.356 46.296 240.377 46.505 239.299 46.505ZM240.256 42.017C240.96 42.017 241.565 41.863 242.071 41.555C242.599 41.247 242.995 40.84 243.259 40.334C243.545 39.806 243.688 39.212 243.688 38.552C243.688 37.892 243.545 37.298 243.259 36.77C242.995 36.242 242.599 35.824 242.071 35.516C241.565 35.208 240.96 35.054 240.256 35.054C239.574 35.054 238.969 35.208 238.441 35.516C237.913 35.824 237.506 36.242 237.22 36.77C236.934 37.298 236.791 37.892 236.791 38.552C236.791 39.168 236.934 39.751 237.22 40.301C237.506 40.829 237.902 41.247 238.408 41.555C238.936 41.863 239.552 42.017 240.256 42.017ZM252.004 47V30.962H257.053V47H252.004ZM254.545 28.751C253.753 28.751 253.093 28.487 252.565 27.959C252.059 27.409 251.806 26.749 251.806 25.979C251.806 25.187 252.059 24.527 252.565 23.999C253.093 23.471 253.753 23.207 254.545 23.207C255.337 23.207 255.986 23.471 256.492 23.999C256.998 24.527 257.251 25.187 257.251 25.979C257.251 26.749 256.998 27.409 256.492 27.959C255.986 28.487 255.337 28.751 254.545 28.751ZM262.885 47V24.329H267.934V47H262.885ZM259.255 35.252V30.962H271.564V35.252H259.255ZM280.166 47.33C278.692 47.33 277.372 46.967 276.206 46.241C275.062 45.515 274.149 44.525 273.467 43.271C272.807 42.017 272.477 40.587 272.477 38.981C272.477 37.375 272.807 35.945 273.467 34.691C274.149 33.437 275.062 32.447 276.206 31.721C277.372 30.995 278.692 30.632 280.166 30.632C281.244 30.632 282.212 30.841 283.07 31.259C283.95 31.677 284.665 32.26 285.215 33.008C285.765 33.734 286.073 34.57 286.139 35.516V42.446C286.073 43.392 285.765 44.239 285.215 44.987C284.687 45.713 283.983 46.285 283.103 46.703C282.223 47.121 281.244 47.33 280.166 47.33ZM281.189 42.776C282.267 42.776 283.136 42.424 283.796 41.72C284.456 40.994 284.786 40.081 284.786 38.981C284.786 38.233 284.632 37.573 284.324 37.001C284.038 36.429 283.62 35.989 283.07 35.681C282.542 35.351 281.926 35.186 281.222 35.186C280.518 35.186 279.891 35.351 279.341 35.681C278.813 35.989 278.384 36.429 278.054 37.001C277.746 37.573 277.592 38.233 277.592 38.981C277.592 39.707 277.746 40.356 278.054 40.928C278.362 41.5 278.791 41.951 279.341 42.281C279.891 42.611 280.507 42.776 281.189 42.776ZM284.588 47V42.677L285.347 38.783L284.588 34.889V30.962H289.538V47H284.588ZM293.093 47V23.042H298.142V47H293.093ZM314.251 47L306.76 23.702H311.908L317.386 41.621H315.373L320.719 23.702H324.778L330.124 41.621H328.144L333.589 23.702H338.704L331.213 47H327.154L321.775 29.081H323.689L318.31 47H314.251ZM346.705 47.363C345.055 47.363 343.559 47 342.217 46.274C340.897 45.526 339.852 44.514 339.082 43.238C338.312 41.962 337.927 40.532 337.927 38.948C337.927 37.364 338.312 35.945 339.082 34.691C339.852 33.437 340.897 32.447 342.217 31.721C343.537 30.973 345.033 30.599 346.705 30.599C348.377 30.599 349.873 30.962 351.193 31.688C352.513 32.414 353.558 33.415 354.328 34.691C355.098 35.945 355.483 37.364 355.483 38.948C355.483 40.532 355.098 41.962 354.328 43.238C353.558 44.514 352.513 45.526 351.193 46.274C349.873 47 348.377 47.363 346.705 47.363ZM346.705 42.776C347.431 42.776 348.069 42.622 348.619 42.314C349.169 41.984 349.587 41.533 349.873 40.961C350.181 40.367 350.335 39.696 350.335 38.948C350.335 38.2 350.181 37.551 349.873 37.001C349.565 36.429 349.136 35.989 348.586 35.681C348.058 35.351 347.431 35.186 346.705 35.186C346.001 35.186 345.374 35.351 344.824 35.681C344.274 35.989 343.845 36.429 343.537 37.001C343.229 37.573 343.075 38.233 343.075 38.981C343.075 39.707 343.229 40.367 343.537 40.961C343.845 41.533 344.274 41.984 344.824 42.314C345.374 42.622 346.001 42.776 346.705 42.776ZM357.997 47V30.962H363.046V47H357.997ZM363.046 38.189L360.934 36.539C361.352 34.669 362.056 33.217 363.046 32.183C364.036 31.149 365.411 30.632 367.171 30.632C367.941 30.632 368.612 30.753 369.184 30.995C369.778 31.215 370.295 31.567 370.735 32.051L367.732 35.846C367.512 35.604 367.237 35.417 366.907 35.285C366.577 35.153 366.203 35.087 365.785 35.087C364.949 35.087 364.278 35.351 363.772 35.879C363.288 36.385 363.046 37.155 363.046 38.189ZM372.08 47V23.042H377.129V47H372.08ZM387.515 47.33C385.997 47.33 384.644 46.967 383.456 46.241C382.29 45.515 381.366 44.525 380.684 43.271C380.024 42.017 379.694 40.587 379.694 38.981C379.694 37.375 380.024 35.945 380.684 34.691C381.366 33.437 382.29 32.447 383.456 31.721C384.644 30.995 385.997 30.632 387.515 30.632C388.615 30.632 389.605 30.841 390.485 31.259C391.387 31.677 392.124 32.26 392.696 33.008C393.29 33.734 393.62 34.57 393.686 35.516V42.281C393.62 43.227 393.301 44.085 392.729 44.855C392.157 45.603 391.42 46.208 390.518 46.67C389.616 47.11 388.615 47.33 387.515 47.33ZM388.406 42.776C389.132 42.776 389.759 42.622 390.287 42.314C390.815 41.984 391.233 41.533 391.541 40.961C391.849 40.389 392.003 39.729 392.003 38.981C392.003 38.233 391.849 37.584 391.541 37.034C391.255 36.462 390.837 36.011 390.287 35.681C389.759 35.351 389.143 35.186 388.439 35.186C387.735 35.186 387.108 35.351 386.558 35.681C386.03 36.011 385.601 36.462 385.271 37.034C384.963 37.606 384.809 38.255 384.809 38.981C384.809 39.707 384.963 40.356 385.271 40.928C385.579 41.5 386.008 41.951 386.558 42.281C387.108 42.611 387.724 42.776 388.406 42.776ZM396.755 47H391.805V42.677L392.564 38.783L391.706 34.889V23.042H396.755V47ZM20.709 87L15.165 70.962H20.115L23.547 82.611L22.095 82.644L25.89 70.962H29.982L33.81 82.644L32.325 82.611L35.79 70.962H40.74L35.196 87H31.071L27.342 75.912H28.596L24.801 87H20.709ZM42.4343 87V70.962H47.4833V87H42.4343ZM44.9753 68.751C44.1833 68.751 43.5233 68.487 42.9953 67.959C42.4893 67.409 42.2363 66.749 42.2363 65.979C42.2363 65.187 42.4893 64.527 42.9953 63.999C43.5233 63.471 44.1833 63.207 44.9753 63.207C45.7673 63.207 46.4163 63.471 46.9223 63.999C47.4283 64.527 47.6813 65.187 47.6813 65.979C47.6813 66.749 47.4283 67.409 46.9223 67.959C46.4163 68.487 45.7673 68.751 44.9753 68.751ZM53.3158 87V64.329H58.3648V87H53.3158ZM49.6858 75.252V70.962H61.9948V75.252H49.6858ZM74.8125 87V77.859C74.8125 77.023 74.5485 76.352 74.0205 75.846C73.5145 75.318 72.8655 75.054 72.0735 75.054C71.5235 75.054 71.0395 75.175 70.6215 75.417C70.2035 75.637 69.8735 75.967 69.6315 76.407C69.3895 76.825 69.2685 77.309 69.2685 77.859L67.3215 76.902C67.3215 75.648 67.5855 74.548 68.1135 73.602C68.6415 72.656 69.3785 71.93 70.3245 71.424C71.2705 70.896 72.3595 70.632 73.5915 70.632C74.8455 70.632 75.9455 70.896 76.8915 71.424C77.8375 71.93 78.5635 72.645 79.0695 73.569C79.5975 74.471 79.8615 75.527 79.8615 76.737V87H74.8125ZM64.2195 87V63.042H69.2685V87H64.2195ZM183.361 90.96L185.77 86.472L187.255 86.043C187.101 86.373 186.914 86.648 186.694 86.868C186.474 87.066 186.221 87.165 185.935 87.165C185.297 87.165 184.714 86.901 184.186 86.373C183.658 85.845 183.394 85.185 183.394 84.393C183.394 83.535 183.68 82.798 184.252 82.182C184.846 81.566 185.572 81.258 186.43 81.258C187.244 81.258 187.948 81.566 188.542 82.182C189.158 82.776 189.466 83.513 189.466 84.393C189.466 84.745 189.4 85.152 189.268 85.614C189.136 86.076 188.872 86.681 188.476 87.429L185.803 92.313L183.361 90.96ZM329.071 87.363C327.157 87.363 325.507 87.055 324.121 86.439C322.757 85.801 321.503 84.844 320.359 83.568L323.725 80.235C324.473 81.093 325.298 81.764 326.2 82.248C327.124 82.71 328.191 82.941 329.401 82.941C330.501 82.941 331.348 82.743 331.942 82.347C332.558 81.951 332.866 81.401 332.866 80.697C332.866 80.059 332.668 79.542 332.272 79.146C331.876 78.75 331.348 78.409 330.688 78.123C330.05 77.837 329.335 77.562 328.543 77.298C327.773 77.034 327.003 76.737 326.233 76.407C325.463 76.055 324.748 75.626 324.088 75.12C323.45 74.592 322.933 73.943 322.537 73.173C322.141 72.381 321.943 71.391 321.943 70.203C321.943 68.773 322.284 67.541 322.966 66.507C323.67 65.473 324.638 64.692 325.87 64.164C327.102 63.614 328.521 63.339 330.127 63.339C331.755 63.339 333.24 63.625 334.582 64.197C335.946 64.769 337.068 65.55 337.948 66.54L334.582 69.873C333.878 69.147 333.163 68.608 332.437 68.256C331.733 67.904 330.93 67.728 330.028 67.728C329.126 67.728 328.411 67.904 327.883 68.256C327.355 68.586 327.091 69.07 327.091 69.708C327.091 70.302 327.289 70.786 327.685 71.16C328.081 71.512 328.598 71.82 329.236 72.084C329.896 72.348 330.611 72.612 331.381 72.876C332.173 73.14 332.954 73.448 333.724 73.8C334.494 74.152 335.198 74.603 335.836 75.153C336.496 75.681 337.024 76.363 337.42 77.199C337.816 78.013 338.014 79.025 338.014 80.235C338.014 82.457 337.222 84.206 335.638 85.482C334.054 86.736 331.865 87.363 329.071 87.363ZM348.478 87.363C346.828 87.363 345.332 87 343.99 86.274C342.67 85.526 341.625 84.514 340.855 83.238C340.085 81.962 339.7 80.532 339.7 78.948C339.7 77.364 340.085 75.945 340.855 74.691C341.625 73.437 342.67 72.447 343.99 71.721C345.31 70.973 346.806 70.599 348.478 70.599C350.15 70.599 351.646 70.962 352.966 71.688C354.286 72.414 355.331 73.415 356.101 74.691C356.871 75.945 357.256 77.364 357.256 78.948C357.256 80.532 356.871 81.962 356.101 83.238C355.331 84.514 354.286 85.526 352.966 86.274C351.646 87 350.15 87.363 348.478 87.363ZM348.478 82.776C349.204 82.776 349.842 82.622 350.392 82.314C350.942 81.984 351.36 81.533 351.646 80.961C351.954 80.367 352.108 79.696 352.108 78.948C352.108 78.2 351.954 77.551 351.646 77.001C351.338 76.429 350.909 75.989 350.359 75.681C349.831 75.351 349.204 75.186 348.478 75.186C347.774 75.186 347.147 75.351 346.597 75.681C346.047 75.989 345.618 76.429 345.31 77.001C345.002 77.573 344.848 78.233 344.848 78.981C344.848 79.707 345.002 80.367 345.31 80.961C345.618 81.533 346.047 81.984 346.597 82.314C347.147 82.622 347.774 82.776 348.478 82.776ZM361.493 87V69.576C361.493 68.278 361.779 67.112 362.351 66.078C362.945 65.022 363.77 64.197 364.826 63.603C365.882 62.987 367.136 62.679 368.588 62.679C369.688 62.679 370.645 62.866 371.459 63.24C372.295 63.592 373.021 64.087 373.637 64.725L370.469 67.893C370.249 67.673 369.996 67.508 369.71 67.398C369.446 67.266 369.127 67.2 368.753 67.2C368.071 67.2 367.532 67.398 367.136 67.794C366.74 68.19 366.542 68.729 366.542 69.411V87H361.493ZM357.962 75.252V70.962H371.162V75.252H357.962ZM375.163 87V64.329H380.212V87H375.163ZM371.533 75.252V70.962H383.842V75.252H371.533ZM389.993 87L384.449 70.962H389.399L392.831 82.611L391.379 82.644L395.174 70.962H399.266L403.094 82.644L401.609 82.611L405.074 70.962H410.024L404.48 87H400.355L396.626 75.912H397.88L394.085 87H389.993ZM418.353 87.33C416.879 87.33 415.559 86.967 414.393 86.241C413.249 85.515 412.336 84.525 411.654 83.271C410.994 82.017 410.664 80.587 410.664 78.981C410.664 77.375 410.994 75.945 411.654 74.691C412.336 73.437 413.249 72.447 414.393 71.721C415.559 70.995 416.879 70.632 418.353 70.632C419.431 70.632 420.399 70.841 421.257 71.259C422.137 71.677 422.852 72.26 423.402 73.008C423.952 73.734 424.26 74.57 424.326 75.516V82.446C424.26 83.392 423.952 84.239 423.402 84.987C422.874 85.713 422.17 86.285 421.29 86.703C420.41 87.121 419.431 87.33 418.353 87.33ZM419.376 82.776C420.454 82.776 421.323 82.424 421.983 81.72C422.643 80.994 422.973 80.081 422.973 78.981C422.973 78.233 422.819 77.573 422.511 77.001C422.225 76.429 421.807 75.989 421.257 75.681C420.729 75.351 420.113 75.186 419.409 75.186C418.705 75.186 418.078 75.351 417.528 75.681C417 75.989 416.571 76.429 416.241 77.001C415.933 77.573 415.779 78.233 415.779 78.981C415.779 79.707 415.933 80.356 416.241 80.928C416.549 81.5 416.978 81.951 417.528 82.281C418.078 82.611 418.694 82.776 419.376 82.776ZM422.775 87V82.677L423.534 78.783L422.775 74.889V70.962H427.725V87H422.775ZM431.28 87V70.962H436.329V87H431.28ZM436.329 78.189L434.217 76.539C434.635 74.669 435.339 73.217 436.329 72.183C437.319 71.149 438.694 70.632 440.454 70.632C441.224 70.632 441.895 70.753 442.467 70.995C443.061 71.215 443.578 71.567 444.018 72.051L441.015 75.846C440.795 75.604 440.52 75.417 440.19 75.285C439.86 75.153 439.486 75.087 439.068 75.087C438.232 75.087 437.561 75.351 437.055 75.879C436.571 76.385 436.329 77.155 436.329 78.189ZM452.832 87.363C451.094 87.363 449.543 87.011 448.179 86.307C446.837 85.581 445.781 84.58 445.011 83.304C444.241 82.028 443.856 80.587 443.856 78.981C443.856 77.375 444.23 75.945 444.978 74.691C445.748 73.415 446.782 72.414 448.08 71.688C449.378 70.962 450.841 70.599 452.469 70.599C454.053 70.599 455.45 70.94 456.66 71.622C457.87 72.304 458.816 73.25 459.498 74.46C460.202 75.67 460.554 77.056 460.554 78.618C460.554 78.904 460.532 79.212 460.488 79.542C460.466 79.85 460.411 80.213 460.323 80.631L446.496 80.664V77.199L458.178 77.166L456 78.618C455.978 77.694 455.835 76.935 455.571 76.341C455.307 75.725 454.911 75.263 454.383 74.955C453.877 74.625 453.25 74.46 452.502 74.46C451.71 74.46 451.017 74.647 450.423 75.021C449.851 75.373 449.4 75.879 449.07 76.539C448.762 77.199 448.608 78.002 448.608 78.948C448.608 79.894 448.773 80.708 449.103 81.39C449.455 82.05 449.939 82.567 450.555 82.941C451.193 83.293 451.941 83.469 452.799 83.469C453.591 83.469 454.306 83.337 454.944 83.073C455.582 82.787 456.143 82.369 456.627 81.819L459.399 84.591C458.607 85.515 457.65 86.208 456.528 86.67C455.406 87.132 454.174 87.363 452.832 87.363Z" fill="#E9F7FB"/>
</svg>
