<svg width="477" height="110" viewBox="0 0 477 110" fill="none" xmlns="http://www.w3.org/2000/svg">
<path d="M49.7978 37.397V33.569H54.7148C55.7488 33.569 56.5408 33.305 57.0908 32.777C57.6628 32.249 57.9488 31.534 57.9488 30.632C57.9488 29.796 57.6738 29.103 57.1238 28.553C56.5738 28.003 55.7818 27.728 54.7478 27.728H49.7978V23.702H55.3418C56.8818 23.702 58.2348 23.999 59.4008 24.593C60.5668 25.165 61.4798 25.968 62.1398 27.002C62.7998 28.036 63.1298 29.224 63.1298 30.566C63.1298 31.93 62.7998 33.129 62.1398 34.163C61.4798 35.175 60.5558 35.967 59.3678 36.539C58.1798 37.111 56.7828 37.397 55.1768 37.397H49.7978ZM45.8378 47V23.702H51.0188V47H45.8378ZM58.5098 47L51.2498 36.968L56.0018 35.681L64.6478 47H58.5098ZM73.953 47.363C72.215 47.363 70.664 47.011 69.3 46.307C67.958 45.581 66.902 44.58 66.132 43.304C65.362 42.028 64.977 40.587 64.977 38.981C64.977 37.375 65.351 35.945 66.099 34.691C66.869 33.415 67.903 32.414 69.201 31.688C70.499 30.962 71.962 30.599 73.59 30.599C75.174 30.599 76.571 30.94 77.781 31.622C78.991 32.304 79.937 33.25 80.619 34.46C81.323 35.67 81.675 37.056 81.675 38.618C81.675 38.904 81.653 39.212 81.609 39.542C81.587 39.85 81.532 40.213 81.444 40.631L67.617 40.664V37.199L79.299 37.166L77.121 38.618C77.099 37.694 76.956 36.935 76.692 36.341C76.428 35.725 76.032 35.263 75.504 34.955C74.998 34.625 74.371 34.46 73.623 34.46C72.831 34.46 72.138 34.647 71.544 35.021C70.972 35.373 70.521 35.879 70.191 36.539C69.883 37.199 69.729 38.002 69.729 38.948C69.729 39.894 69.894 40.708 70.224 41.39C70.576 42.05 71.06 42.567 71.676 42.941C72.314 43.293 73.062 43.469 73.92 43.469C74.712 43.469 75.427 43.337 76.065 43.073C76.703 42.787 77.264 42.369 77.748 41.819L80.52 44.591C79.728 45.515 78.771 46.208 77.649 46.67C76.527 47.132 75.295 47.363 73.953 47.363ZM94.7051 47V37.859C94.7051 37.023 94.4411 36.352 93.9131 35.846C93.4071 35.318 92.7581 35.054 91.9661 35.054C91.4161 35.054 90.9321 35.175 90.5141 35.417C90.0961 35.637 89.7661 35.967 89.5241 36.407C89.2821 36.825 89.1611 37.309 89.1611 37.859L87.2141 36.902C87.2141 35.648 87.4891 34.548 88.0391 33.602C88.5891 32.656 89.3481 31.93 90.3161 31.424C91.3061 30.896 92.4171 30.632 93.6491 30.632C94.8371 30.632 95.8821 30.918 96.7841 31.49C97.7081 32.04 98.4341 32.777 98.9621 33.701C99.4901 34.625 99.7541 35.637 99.7541 36.737V47H94.7051ZM84.1121 47V30.962H89.1611V47H84.1121ZM110.917 47.363C109.179 47.363 107.628 47.011 106.264 46.307C104.922 45.581 103.866 44.58 103.096 43.304C102.326 42.028 101.941 40.587 101.941 38.981C101.941 37.375 102.315 35.945 103.063 34.691C103.833 33.415 104.867 32.414 106.165 31.688C107.463 30.962 108.926 30.599 110.554 30.599C112.138 30.599 113.535 30.94 114.745 31.622C115.955 32.304 116.901 33.25 117.583 34.46C118.287 35.67 118.639 37.056 118.639 38.618C118.639 38.904 118.617 39.212 118.573 39.542C118.551 39.85 118.496 40.213 118.408 40.631L104.581 40.664V37.199L116.263 37.166L114.085 38.618C114.063 37.694 113.92 36.935 113.656 36.341C113.392 35.725 112.996 35.263 112.468 34.955C111.962 34.625 111.335 34.46 110.587 34.46C109.795 34.46 109.102 34.647 108.508 35.021C107.936 35.373 107.485 35.879 107.155 36.539C106.847 37.199 106.693 38.002 106.693 38.948C106.693 39.894 106.858 40.708 107.188 41.39C107.54 42.05 108.024 42.567 108.64 42.941C109.278 43.293 110.026 43.469 110.884 43.469C111.676 43.469 112.391 43.337 113.029 43.073C113.667 42.787 114.228 42.369 114.712 41.819L117.484 44.591C116.692 45.515 115.735 46.208 114.613 46.67C113.491 47.132 112.259 47.363 110.917 47.363ZM124.81 47L119.266 30.962H124.216L127.648 42.611L126.196 42.644L129.991 30.962H134.083L137.911 42.644L136.426 42.611L139.891 30.962H144.841L139.297 47H135.172L131.443 35.912H132.697L128.902 47H124.81ZM97.242 87.363C95.328 87.363 93.678 87.055 92.292 86.439C90.928 85.801 89.674 84.844 88.53 83.568L91.896 80.235C92.644 81.093 93.469 81.764 94.371 82.248C95.295 82.71 96.362 82.941 97.572 82.941C98.672 82.941 99.519 82.743 100.113 82.347C100.729 81.951 101.037 81.401 101.037 80.697C101.037 80.059 100.839 79.542 100.443 79.146C100.047 78.75 99.519 78.409 98.859 78.123C98.221 77.837 97.506 77.562 96.714 77.298C95.944 77.034 95.174 76.737 94.404 76.407C93.634 76.055 92.919 75.626 92.259 75.12C91.621 74.592 91.104 73.943 90.708 73.173C90.312 72.381 90.114 71.391 90.114 70.203C90.114 68.773 90.455 67.541 91.137 66.507C91.841 65.473 92.809 64.692 94.041 64.164C95.273 63.614 96.692 63.339 98.298 63.339C99.926 63.339 101.411 63.625 102.753 64.197C104.117 64.769 105.239 65.55 106.119 66.54L102.753 69.873C102.049 69.147 101.334 68.608 100.608 68.256C99.904 67.904 99.101 67.728 98.199 67.728C97.297 67.728 96.582 67.904 96.054 68.256C95.526 68.586 95.262 69.07 95.262 69.708C95.262 70.302 95.46 70.786 95.856 71.16C96.252 71.512 96.769 71.82 97.407 72.084C98.067 72.348 98.782 72.612 99.552 72.876C100.344 73.14 101.125 73.448 101.895 73.8C102.665 74.152 103.369 74.603 104.007 75.153C104.667 75.681 105.195 76.363 105.591 77.199C105.987 78.013 106.185 79.025 106.185 80.235C106.185 82.457 105.393 84.206 103.809 85.482C102.225 86.736 100.036 87.363 97.242 87.363ZM109.023 87V70.962H114.072V87H109.023ZM119.286 87V77.628C119.286 76.814 119.033 76.187 118.527 75.747C118.043 75.285 117.438 75.054 116.712 75.054C116.206 75.054 115.755 75.164 115.359 75.384C114.963 75.582 114.644 75.868 114.402 76.242C114.182 76.616 114.072 77.078 114.072 77.628L112.125 76.77C112.125 75.494 112.4 74.405 112.95 73.503C113.5 72.579 114.248 71.875 115.194 71.391C116.14 70.885 117.207 70.632 118.395 70.632C119.517 70.632 120.518 70.885 121.398 71.391C122.3 71.897 123.015 72.601 123.543 73.503C124.071 74.405 124.335 75.483 124.335 76.737V87H119.286ZM129.549 87V77.628C129.549 76.814 129.296 76.187 128.79 75.747C128.306 75.285 127.701 75.054 126.975 75.054C126.469 75.054 126.018 75.164 125.622 75.384C125.226 75.582 124.907 75.868 124.665 76.242C124.445 76.616 124.335 77.078 124.335 77.628L121.431 77.232C121.475 75.868 121.794 74.702 122.388 73.734C123.004 72.744 123.807 71.985 124.797 71.457C125.809 70.907 126.942 70.632 128.196 70.632C129.428 70.632 130.517 70.896 131.463 71.424C132.431 71.93 133.19 72.667 133.74 73.635C134.312 74.581 134.598 75.725 134.598 77.067V87H129.549ZM144.533 87.33C143.059 87.33 141.739 86.967 140.573 86.241C139.429 85.515 138.516 84.525 137.834 83.271C137.174 82.017 136.844 80.587 136.844 78.981C136.844 77.375 137.174 75.945 137.834 74.691C138.516 73.437 139.429 72.447 140.573 71.721C141.739 70.995 143.059 70.632 144.533 70.632C145.611 70.632 146.579 70.841 147.437 71.259C148.317 71.677 149.032 72.26 149.582 73.008C150.132 73.734 150.44 74.57 150.506 75.516V82.446C150.44 83.392 150.132 84.239 149.582 84.987C149.054 85.713 148.35 86.285 147.47 86.703C146.59 87.121 145.611 87.33 144.533 87.33ZM145.556 82.776C146.634 82.776 147.503 82.424 148.163 81.72C148.823 80.994 149.153 80.081 149.153 78.981C149.153 78.233 148.999 77.573 148.691 77.001C148.405 76.429 147.987 75.989 147.437 75.681C146.909 75.351 146.293 75.186 145.589 75.186C144.885 75.186 144.258 75.351 143.708 75.681C143.18 75.989 142.751 76.429 142.421 77.001C142.113 77.573 141.959 78.233 141.959 78.981C141.959 79.707 142.113 80.356 142.421 80.928C142.729 81.5 143.158 81.951 143.708 82.281C144.258 82.611 144.874 82.776 145.556 82.776ZM148.955 87V82.677L149.714 78.783L148.955 74.889V70.962H153.905V87H148.955ZM157.46 87V70.962H162.509V87H157.46ZM162.509 78.189L160.397 76.539C160.815 74.669 161.519 73.217 162.509 72.183C163.499 71.149 164.874 70.632 166.634 70.632C167.404 70.632 168.075 70.753 168.647 70.995C169.241 71.215 169.758 71.567 170.198 72.051L167.195 75.846C166.975 75.604 166.7 75.417 166.37 75.285C166.04 75.153 165.666 75.087 165.248 75.087C164.412 75.087 163.741 75.351 163.235 75.879C162.751 76.385 162.509 77.155 162.509 78.189ZM173.981 87V64.329H179.03V87H173.981ZM170.351 75.252V70.962H182.66V75.252H170.351ZM210.903 87.363C209.165 87.363 207.548 87.066 206.052 86.472C204.578 85.856 203.28 84.998 202.158 83.898C201.058 82.798 200.2 81.522 199.584 80.07C198.968 78.596 198.66 77.012 198.66 75.318C198.66 73.624 198.968 72.051 199.584 70.599C200.2 69.125 201.058 67.849 202.158 66.771C203.258 65.693 204.545 64.857 206.019 64.263C207.515 63.647 209.132 63.339 210.87 63.339C212.718 63.339 214.357 63.636 215.787 64.23C217.239 64.824 218.504 65.638 219.582 66.672L216.117 70.17C215.501 69.51 214.753 68.993 213.873 68.619C213.015 68.245 212.014 68.058 210.87 68.058C209.858 68.058 208.923 68.234 208.065 68.586C207.229 68.916 206.503 69.4 205.887 70.038C205.293 70.676 204.82 71.446 204.468 72.348C204.138 73.25 203.973 74.24 203.973 75.318C203.973 76.418 204.138 77.419 204.468 78.321C204.82 79.223 205.293 79.993 205.887 80.631C206.503 81.269 207.229 81.764 208.065 82.116C208.923 82.468 209.858 82.644 210.87 82.644C212.058 82.644 213.092 82.457 213.972 82.083C214.852 81.709 215.611 81.192 216.249 80.532L219.747 84.03C218.625 85.064 217.338 85.878 215.886 86.472C214.456 87.066 212.795 87.363 210.903 87.363ZM229.266 87.363C227.792 87.363 226.483 87.066 225.339 86.472C224.217 85.856 223.337 85.02 222.699 83.964C222.061 82.886 221.742 81.654 221.742 80.268V70.962H226.791V80.202C226.791 80.752 226.879 81.225 227.055 81.621C227.253 82.017 227.539 82.325 227.913 82.545C228.287 82.765 228.738 82.875 229.266 82.875C230.014 82.875 230.608 82.644 231.048 82.182C231.488 81.698 231.708 81.038 231.708 80.202V70.962H236.757V80.235C236.757 81.643 236.438 82.886 235.8 83.964C235.162 85.02 234.282 85.856 233.16 86.472C232.038 87.066 230.74 87.363 229.266 87.363ZM245.769 87.396C244.823 87.396 243.888 87.275 242.964 87.033C242.062 86.791 241.215 86.45 240.423 86.01C239.653 85.548 238.993 85.02 238.443 84.426L241.314 81.522C241.842 82.094 242.469 82.545 243.195 82.875C243.921 83.183 244.713 83.337 245.571 83.337C246.165 83.337 246.616 83.249 246.924 83.073C247.254 82.897 247.419 82.655 247.419 82.347C247.419 81.951 247.221 81.654 246.825 81.456C246.451 81.236 245.967 81.049 245.373 80.895C244.779 80.719 244.152 80.532 243.492 80.334C242.832 80.136 242.205 79.861 241.611 79.509C241.017 79.157 240.533 78.673 240.159 78.057C239.785 77.419 239.598 76.616 239.598 75.648C239.598 74.614 239.862 73.723 240.39 72.975C240.918 72.205 241.666 71.6 242.634 71.16C243.602 70.72 244.735 70.5 246.033 70.5C247.397 70.5 248.651 70.742 249.795 71.226C250.961 71.688 251.907 72.381 252.633 73.305L249.762 76.209C249.256 75.615 248.684 75.197 248.046 74.955C247.43 74.713 246.825 74.592 246.231 74.592C245.659 74.592 245.23 74.68 244.944 74.856C244.658 75.01 244.515 75.241 244.515 75.549C244.515 75.879 244.702 76.143 245.076 76.341C245.45 76.539 245.934 76.715 246.528 76.869C247.122 77.023 247.749 77.21 248.409 77.43C249.069 77.65 249.696 77.947 250.29 78.321C250.884 78.695 251.368 79.201 251.742 79.839C252.116 80.455 252.303 81.269 252.303 82.281C252.303 83.843 251.709 85.086 250.521 86.01C249.355 86.934 247.771 87.396 245.769 87.396ZM257.319 87V64.329H262.368V87H257.319ZM253.689 75.252V70.962H265.998V75.252H253.689ZM275.622 87.363C273.972 87.363 272.476 87 271.134 86.274C269.814 85.526 268.769 84.514 267.999 83.238C267.229 81.962 266.844 80.532 266.844 78.948C266.844 77.364 267.229 75.945 267.999 74.691C268.769 73.437 269.814 72.447 271.134 71.721C272.454 70.973 273.95 70.599 275.622 70.599C277.294 70.599 278.79 70.962 280.11 71.688C281.43 72.414 282.475 73.415 283.245 74.691C284.015 75.945 284.4 77.364 284.4 78.948C284.4 80.532 284.015 81.962 283.245 83.238C282.475 84.514 281.43 85.526 280.11 86.274C278.79 87 277.294 87.363 275.622 87.363ZM275.622 82.776C276.348 82.776 276.986 82.622 277.536 82.314C278.086 81.984 278.504 81.533 278.79 80.961C279.098 80.367 279.252 79.696 279.252 78.948C279.252 78.2 279.098 77.551 278.79 77.001C278.482 76.429 278.053 75.989 277.503 75.681C276.975 75.351 276.348 75.186 275.622 75.186C274.918 75.186 274.291 75.351 273.741 75.681C273.191 75.989 272.762 76.429 272.454 77.001C272.146 77.573 271.992 78.233 271.992 78.981C271.992 79.707 272.146 80.367 272.454 80.961C272.762 81.533 273.191 81.984 273.741 82.314C274.291 82.622 274.918 82.776 275.622 82.776ZM286.914 87V70.962H291.963V87H286.914ZM297.177 87V77.628C297.177 76.814 296.924 76.187 296.418 75.747C295.934 75.285 295.329 75.054 294.603 75.054C294.097 75.054 293.646 75.164 293.25 75.384C292.854 75.582 292.535 75.868 292.293 76.242C292.073 76.616 291.963 77.078 291.963 77.628L290.016 76.77C290.016 75.494 290.291 74.405 290.841 73.503C291.391 72.579 292.139 71.875 293.085 71.391C294.031 70.885 295.098 70.632 296.286 70.632C297.408 70.632 298.409 70.885 299.289 71.391C300.191 71.897 300.906 72.601 301.434 73.503C301.962 74.405 302.226 75.483 302.226 76.737V87H297.177ZM307.44 87V77.628C307.44 76.814 307.187 76.187 306.681 75.747C306.197 75.285 305.592 75.054 304.866 75.054C304.36 75.054 303.909 75.164 303.513 75.384C303.117 75.582 302.798 75.868 302.556 76.242C302.336 76.616 302.226 77.078 302.226 77.628L299.322 77.232C299.366 75.868 299.685 74.702 300.279 73.734C300.895 72.744 301.698 71.985 302.688 71.457C303.7 70.907 304.833 70.632 306.087 70.632C307.319 70.632 308.408 70.896 309.354 71.424C310.322 71.93 311.081 72.667 311.631 73.635C312.203 74.581 312.489 75.725 312.489 77.067V87H307.44Z" fill="#229EBF"/>
<path d="M159.765 38.321L150.789 23.702H156.795L163.692 35.516H159.831L166.728 23.702H172.602L163.56 38.321H159.765ZM159.138 47V35.945H164.319V47H159.138ZM177.815 47.363C176.165 47.363 174.669 47 173.327 46.274C172.007 45.526 170.962 44.514 170.192 43.238C169.422 41.962 169.037 40.532 169.037 38.948C169.037 37.364 169.422 35.945 170.192 34.691C170.962 33.437 172.007 32.447 173.327 31.721C174.647 30.973 176.143 30.599 177.815 30.599C179.487 30.599 180.983 30.962 182.303 31.688C183.623 32.414 184.668 33.415 185.438 34.691C186.208 35.945 186.593 37.364 186.593 38.948C186.593 40.532 186.208 41.962 185.438 43.238C184.668 44.514 183.623 45.526 182.303 46.274C180.983 47 179.487 47.363 177.815 47.363ZM177.815 42.776C178.541 42.776 179.179 42.622 179.729 42.314C180.279 41.984 180.697 41.533 180.983 40.961C181.291 40.367 181.445 39.696 181.445 38.948C181.445 38.2 181.291 37.551 180.983 37.001C180.675 36.429 180.246 35.989 179.696 35.681C179.168 35.351 178.541 35.186 177.815 35.186C177.111 35.186 176.484 35.351 175.934 35.681C175.384 35.989 174.955 36.429 174.647 37.001C174.339 37.573 174.185 38.233 174.185 38.981C174.185 39.707 174.339 40.367 174.647 40.961C174.955 41.533 175.384 41.984 175.934 42.314C176.484 42.622 177.111 42.776 177.815 42.776ZM196.234 47.363C194.76 47.363 193.451 47.066 192.307 46.472C191.185 45.856 190.305 45.02 189.667 43.964C189.029 42.886 188.71 41.654 188.71 40.268V30.962H193.759V40.202C193.759 40.752 193.847 41.225 194.023 41.621C194.221 42.017 194.507 42.325 194.881 42.545C195.255 42.765 195.706 42.875 196.234 42.875C196.982 42.875 197.576 42.644 198.016 42.182C198.456 41.698 198.676 41.038 198.676 40.202V30.962H203.725V40.235C203.725 41.643 203.406 42.886 202.768 43.964C202.13 45.02 201.25 45.856 200.128 46.472C199.006 47.066 197.708 47.363 196.234 47.363ZM206.895 47V30.962H211.944V47H206.895ZM211.944 38.189L209.832 36.539C210.25 34.669 210.954 33.217 211.944 32.183C212.934 31.149 214.309 30.632 216.069 30.632C216.839 30.632 217.51 30.753 218.082 30.995C218.676 31.215 219.193 31.567 219.633 32.051L216.63 35.846C216.41 35.604 216.135 35.417 215.805 35.285C215.475 35.153 215.101 35.087 214.683 35.087C213.847 35.087 213.176 35.351 212.67 35.879C212.186 36.385 211.944 37.155 211.944 38.189ZM231.803 47V42.446H237.578C238.986 42.446 240.218 42.171 241.274 41.621C242.33 41.049 243.144 40.224 243.716 39.146C244.288 38.068 244.574 36.792 244.574 35.318C244.574 33.844 244.277 32.579 243.683 31.523C243.111 30.467 242.297 29.653 241.241 29.081C240.207 28.509 238.986 28.223 237.578 28.223H231.638V23.702H237.644C239.404 23.702 241.021 23.988 242.495 24.56C243.991 25.11 245.289 25.913 246.389 26.969C247.511 28.003 248.369 29.235 248.963 30.665C249.579 32.073 249.887 33.635 249.887 35.351C249.887 37.045 249.579 38.607 248.963 40.037C248.369 41.467 247.522 42.699 246.422 43.733C245.322 44.767 244.024 45.57 242.528 46.142C241.054 46.714 239.448 47 237.71 47H231.803ZM228.305 47V23.702H233.486V47H228.305ZM252.721 47V30.962H257.77V47H252.721ZM255.262 28.751C254.47 28.751 253.81 28.487 253.282 27.959C252.776 27.409 252.523 26.749 252.523 25.979C252.523 25.187 252.776 24.527 253.282 23.999C253.81 23.471 254.47 23.207 255.262 23.207C256.054 23.207 256.703 23.471 257.209 23.999C257.715 24.527 257.968 25.187 257.968 25.979C257.968 26.749 257.715 27.409 257.209 27.959C256.703 28.487 256.054 28.751 255.262 28.751ZM268.124 54.194C266.364 54.194 264.813 53.886 263.471 53.27C262.151 52.676 261.106 51.829 260.336 50.729L263.438 47.627C264.01 48.309 264.648 48.826 265.352 49.178C266.078 49.53 266.947 49.706 267.959 49.706C269.213 49.706 270.192 49.398 270.896 48.782C271.622 48.166 271.985 47.297 271.985 46.175V42.083L272.843 38.585L272.084 35.087V30.962H277.034V46.043C277.034 47.693 276.649 49.123 275.879 50.333C275.109 51.543 274.053 52.489 272.711 53.171C271.369 53.853 269.84 54.194 268.124 54.194ZM267.893 46.505C266.419 46.505 265.11 46.153 263.966 45.449C262.822 44.745 261.92 43.788 261.26 42.578C260.6 41.368 260.27 40.026 260.27 38.552C260.27 37.056 260.6 35.714 261.26 34.526C261.92 33.316 262.822 32.37 263.966 31.688C265.11 30.984 266.419 30.632 267.893 30.632C268.993 30.632 269.972 30.841 270.83 31.259C271.71 31.655 272.414 32.227 272.942 32.975C273.492 33.701 273.8 34.548 273.866 35.516V41.621C273.8 42.567 273.492 43.414 272.942 44.162C272.414 44.888 271.71 45.46 270.83 45.878C269.95 46.296 268.971 46.505 267.893 46.505ZM268.85 42.017C269.554 42.017 270.159 41.863 270.665 41.555C271.193 41.247 271.589 40.84 271.853 40.334C272.139 39.806 272.282 39.212 272.282 38.552C272.282 37.892 272.139 37.298 271.853 36.77C271.589 36.242 271.193 35.824 270.665 35.516C270.159 35.208 269.554 35.054 268.85 35.054C268.168 35.054 267.563 35.208 267.035 35.516C266.507 35.824 266.1 36.242 265.814 36.77C265.528 37.298 265.385 37.892 265.385 38.552C265.385 39.168 265.528 39.751 265.814 40.301C266.1 40.829 266.496 41.247 267.002 41.555C267.53 41.863 268.146 42.017 268.85 42.017ZM280.597 47V30.962H285.646V47H280.597ZM283.138 28.751C282.346 28.751 281.686 28.487 281.158 27.959C280.652 27.409 280.399 26.749 280.399 25.979C280.399 25.187 280.652 24.527 281.158 23.999C281.686 23.471 282.346 23.207 283.138 23.207C283.93 23.207 284.579 23.471 285.085 23.999C285.591 24.527 285.844 25.187 285.844 25.979C285.844 26.749 285.591 27.409 285.085 27.959C284.579 28.487 283.93 28.751 283.138 28.751ZM291.479 47V24.329H296.528V47H291.479ZM287.849 35.252V30.962H300.158V35.252H287.849ZM308.759 47.33C307.285 47.33 305.965 46.967 304.799 46.241C303.655 45.515 302.742 44.525 302.06 43.271C301.4 42.017 301.07 40.587 301.07 38.981C301.07 37.375 301.4 35.945 302.06 34.691C302.742 33.437 303.655 32.447 304.799 31.721C305.965 30.995 307.285 30.632 308.759 30.632C309.837 30.632 310.805 30.841 311.663 31.259C312.543 31.677 313.258 32.26 313.808 33.008C314.358 33.734 314.666 34.57 314.732 35.516V42.446C314.666 43.392 314.358 44.239 313.808 44.987C313.28 45.713 312.576 46.285 311.696 46.703C310.816 47.121 309.837 47.33 308.759 47.33ZM309.782 42.776C310.86 42.776 311.729 42.424 312.389 41.72C313.049 40.994 313.379 40.081 313.379 38.981C313.379 38.233 313.225 37.573 312.917 37.001C312.631 36.429 312.213 35.989 311.663 35.681C311.135 35.351 310.519 35.186 309.815 35.186C309.111 35.186 308.484 35.351 307.934 35.681C307.406 35.989 306.977 36.429 306.647 37.001C306.339 37.573 306.185 38.233 306.185 38.981C306.185 39.707 306.339 40.356 306.647 40.928C306.955 41.5 307.384 41.951 307.934 42.281C308.484 42.611 309.1 42.776 309.782 42.776ZM313.181 47V42.677L313.94 38.783L313.181 34.889V30.962H318.131V47H313.181ZM321.686 47V23.042H326.735V47H321.686ZM342.845 47L335.354 23.702H340.502L345.98 41.621H343.967L349.313 23.702H353.372L358.718 41.621H356.738L362.183 23.702H367.298L359.807 47H355.748L350.369 29.081H352.283L346.904 47H342.845ZM375.299 47.363C373.649 47.363 372.153 47 370.811 46.274C369.491 45.526 368.446 44.514 367.676 43.238C366.906 41.962 366.521 40.532 366.521 38.948C366.521 37.364 366.906 35.945 367.676 34.691C368.446 33.437 369.491 32.447 370.811 31.721C372.131 30.973 373.627 30.599 375.299 30.599C376.971 30.599 378.467 30.962 379.787 31.688C381.107 32.414 382.152 33.415 382.922 34.691C383.692 35.945 384.077 37.364 384.077 38.948C384.077 40.532 383.692 41.962 382.922 43.238C382.152 44.514 381.107 45.526 379.787 46.274C378.467 47 376.971 47.363 375.299 47.363ZM375.299 42.776C376.025 42.776 376.663 42.622 377.213 42.314C377.763 41.984 378.181 41.533 378.467 40.961C378.775 40.367 378.929 39.696 378.929 38.948C378.929 38.2 378.775 37.551 378.467 37.001C378.159 36.429 377.73 35.989 377.18 35.681C376.652 35.351 376.025 35.186 375.299 35.186C374.595 35.186 373.968 35.351 373.418 35.681C372.868 35.989 372.439 36.429 372.131 37.001C371.823 37.573 371.669 38.233 371.669 38.981C371.669 39.707 371.823 40.367 372.131 40.961C372.439 41.533 372.868 41.984 373.418 42.314C373.968 42.622 374.595 42.776 375.299 42.776ZM386.591 47V30.962H391.64V47H386.591ZM391.64 38.189L389.528 36.539C389.946 34.669 390.65 33.217 391.64 32.183C392.63 31.149 394.005 30.632 395.765 30.632C396.535 30.632 397.206 30.753 397.778 30.995C398.372 31.215 398.889 31.567 399.329 32.051L396.326 35.846C396.106 35.604 395.831 35.417 395.501 35.285C395.171 35.153 394.797 35.087 394.379 35.087C393.543 35.087 392.872 35.351 392.366 35.879C391.882 36.385 391.64 37.155 391.64 38.189ZM400.674 47V23.042H405.723V47H400.674ZM416.109 47.33C414.591 47.33 413.238 46.967 412.05 46.241C410.884 45.515 409.96 44.525 409.278 43.271C408.618 42.017 408.288 40.587 408.288 38.981C408.288 37.375 408.618 35.945 409.278 34.691C409.96 33.437 410.884 32.447 412.05 31.721C413.238 30.995 414.591 30.632 416.109 30.632C417.209 30.632 418.199 30.841 419.079 31.259C419.981 31.677 420.718 32.26 421.29 33.008C421.884 33.734 422.214 34.57 422.28 35.516V42.281C422.214 43.227 421.895 44.085 421.323 44.855C420.751 45.603 420.014 46.208 419.112 46.67C418.21 47.11 417.209 47.33 416.109 47.33ZM417 42.776C417.726 42.776 418.353 42.622 418.881 42.314C419.409 41.984 419.827 41.533 420.135 40.961C420.443 40.389 420.597 39.729 420.597 38.981C420.597 38.233 420.443 37.584 420.135 37.034C419.849 36.462 419.431 36.011 418.881 35.681C418.353 35.351 417.737 35.186 417.033 35.186C416.329 35.186 415.702 35.351 415.152 35.681C414.624 36.011 414.195 36.462 413.865 37.034C413.557 37.606 413.403 38.255 413.403 38.981C413.403 39.707 413.557 40.356 413.865 40.928C414.173 41.5 414.602 41.951 415.152 42.281C415.702 42.611 416.318 42.776 417 42.776ZM425.349 47H420.399V42.677L421.158 38.783L420.3 34.889V23.042H425.349V47ZM21.1045 87L15.5605 70.962H20.5105L23.9425 82.611L22.4905 82.644L26.2855 70.962H30.3775L34.2055 82.644L32.7205 82.611L36.1855 70.962H41.1355L35.5915 87H31.4665L27.7375 75.912H28.9915L25.1965 87H21.1045ZM42.8299 87V70.962H47.8789V87H42.8299ZM45.3709 68.751C44.5789 68.751 43.9189 68.487 43.3909 67.959C42.8849 67.409 42.6319 66.749 42.6319 65.979C42.6319 65.187 42.8849 64.527 43.3909 63.999C43.9189 63.471 44.5789 63.207 45.3709 63.207C46.1629 63.207 46.8119 63.471 47.3179 63.999C47.8239 64.527 48.0769 65.187 48.0769 65.979C48.0769 66.749 47.8239 67.409 47.3179 67.959C46.8119 68.487 46.1629 68.751 45.3709 68.751ZM53.7113 87V64.329H58.7603V87H53.7113ZM50.0813 75.252V70.962H62.3903V75.252H50.0813ZM75.208 87V77.859C75.208 77.023 74.944 76.352 74.416 75.846C73.91 75.318 73.261 75.054 72.469 75.054C71.919 75.054 71.435 75.175 71.017 75.417C70.599 75.637 70.269 75.967 70.027 76.407C69.785 76.825 69.664 77.309 69.664 77.859L67.717 76.902C67.717 75.648 67.981 74.548 68.509 73.602C69.037 72.656 69.774 71.93 70.72 71.424C71.666 70.896 72.755 70.632 73.987 70.632C75.241 70.632 76.341 70.896 77.287 71.424C78.233 71.93 78.959 72.645 79.465 73.569C79.993 74.471 80.257 75.527 80.257 76.737V87H75.208ZM64.615 87V63.042H69.664V87H64.615ZM183.757 90.96L186.166 86.472L187.651 86.043C187.497 86.373 187.31 86.648 187.09 86.868C186.87 87.066 186.617 87.165 186.331 87.165C185.693 87.165 185.11 86.901 184.582 86.373C184.054 85.845 183.79 85.185 183.79 84.393C183.79 83.535 184.076 82.798 184.648 82.182C185.242 81.566 185.968 81.258 186.826 81.258C187.64 81.258 188.344 81.566 188.938 82.182C189.554 82.776 189.862 83.513 189.862 84.393C189.862 84.745 189.796 85.152 189.664 85.614C189.532 86.076 189.268 86.681 188.872 87.429L186.199 92.313L183.757 90.96ZM329.467 87.363C327.553 87.363 325.903 87.055 324.517 86.439C323.153 85.801 321.899 84.844 320.755 83.568L324.121 80.235C324.869 81.093 325.694 81.764 326.596 82.248C327.52 82.71 328.587 82.941 329.797 82.941C330.897 82.941 331.744 82.743 332.338 82.347C332.954 81.951 333.262 81.401 333.262 80.697C333.262 80.059 333.064 79.542 332.668 79.146C332.272 78.75 331.744 78.409 331.084 78.123C330.446 77.837 329.731 77.562 328.939 77.298C328.169 77.034 327.399 76.737 326.629 76.407C325.859 76.055 325.144 75.626 324.484 75.12C323.846 74.592 323.329 73.943 322.933 73.173C322.537 72.381 322.339 71.391 322.339 70.203C322.339 68.773 322.68 67.541 323.362 66.507C324.066 65.473 325.034 64.692 326.266 64.164C327.498 63.614 328.917 63.339 330.523 63.339C332.151 63.339 333.636 63.625 334.978 64.197C336.342 64.769 337.464 65.55 338.344 66.54L334.978 69.873C334.274 69.147 333.559 68.608 332.833 68.256C332.129 67.904 331.326 67.728 330.424 67.728C329.522 67.728 328.807 67.904 328.279 68.256C327.751 68.586 327.487 69.07 327.487 69.708C327.487 70.302 327.685 70.786 328.081 71.16C328.477 71.512 328.994 71.82 329.632 72.084C330.292 72.348 331.007 72.612 331.777 72.876C332.569 73.14 333.35 73.448 334.12 73.8C334.89 74.152 335.594 74.603 336.232 75.153C336.892 75.681 337.42 76.363 337.816 77.199C338.212 78.013 338.41 79.025 338.41 80.235C338.41 82.457 337.618 84.206 336.034 85.482C334.45 86.736 332.261 87.363 329.467 87.363ZM348.873 87.363C347.223 87.363 345.727 87 344.385 86.274C343.065 85.526 342.02 84.514 341.25 83.238C340.48 81.962 340.095 80.532 340.095 78.948C340.095 77.364 340.48 75.945 341.25 74.691C342.02 73.437 343.065 72.447 344.385 71.721C345.705 70.973 347.201 70.599 348.873 70.599C350.545 70.599 352.041 70.962 353.361 71.688C354.681 72.414 355.726 73.415 356.496 74.691C357.266 75.945 357.651 77.364 357.651 78.948C357.651 80.532 357.266 81.962 356.496 83.238C355.726 84.514 354.681 85.526 353.361 86.274C352.041 87 350.545 87.363 348.873 87.363ZM348.873 82.776C349.599 82.776 350.237 82.622 350.787 82.314C351.337 81.984 351.755 81.533 352.041 80.961C352.349 80.367 352.503 79.696 352.503 78.948C352.503 78.2 352.349 77.551 352.041 77.001C351.733 76.429 351.304 75.989 350.754 75.681C350.226 75.351 349.599 75.186 348.873 75.186C348.169 75.186 347.542 75.351 346.992 75.681C346.442 75.989 346.013 76.429 345.705 77.001C345.397 77.573 345.243 78.233 345.243 78.981C345.243 79.707 345.397 80.367 345.705 80.961C346.013 81.533 346.442 81.984 346.992 82.314C347.542 82.622 348.169 82.776 348.873 82.776ZM361.889 87V69.576C361.889 68.278 362.175 67.112 362.747 66.078C363.341 65.022 364.166 64.197 365.222 63.603C366.278 62.987 367.532 62.679 368.984 62.679C370.084 62.679 371.041 62.866 371.855 63.24C372.691 63.592 373.417 64.087 374.033 64.725L370.865 67.893C370.645 67.673 370.392 67.508 370.106 67.398C369.842 67.266 369.523 67.2 369.149 67.2C368.467 67.2 367.928 67.398 367.532 67.794C367.136 68.19 366.938 68.729 366.938 69.411V87H361.889ZM358.358 75.252V70.962H371.558V75.252H358.358ZM375.558 87V64.329H380.607V87H375.558ZM371.928 75.252V70.962H384.237V75.252H371.928ZM390.389 87L384.845 70.962H389.795L393.227 82.611L391.775 82.644L395.57 70.962H399.662L403.49 82.644L402.005 82.611L405.47 70.962H410.42L404.876 87H400.751L397.022 75.912H398.276L394.481 87H390.389ZM418.749 87.33C417.275 87.33 415.955 86.967 414.789 86.241C413.645 85.515 412.732 84.525 412.05 83.271C411.39 82.017 411.06 80.587 411.06 78.981C411.06 77.375 411.39 75.945 412.05 74.691C412.732 73.437 413.645 72.447 414.789 71.721C415.955 70.995 417.275 70.632 418.749 70.632C419.827 70.632 420.795 70.841 421.653 71.259C422.533 71.677 423.248 72.26 423.798 73.008C424.348 73.734 424.656 74.57 424.722 75.516V82.446C424.656 83.392 424.348 84.239 423.798 84.987C423.27 85.713 422.566 86.285 421.686 86.703C420.806 87.121 419.827 87.33 418.749 87.33ZM419.772 82.776C420.85 82.776 421.719 82.424 422.379 81.72C423.039 80.994 423.369 80.081 423.369 78.981C423.369 78.233 423.215 77.573 422.907 77.001C422.621 76.429 422.203 75.989 421.653 75.681C421.125 75.351 420.509 75.186 419.805 75.186C419.101 75.186 418.474 75.351 417.924 75.681C417.396 75.989 416.967 76.429 416.637 77.001C416.329 77.573 416.175 78.233 416.175 78.981C416.175 79.707 416.329 80.356 416.637 80.928C416.945 81.5 417.374 81.951 417.924 82.281C418.474 82.611 419.09 82.776 419.772 82.776ZM423.171 87V82.677L423.93 78.783L423.171 74.889V70.962H428.121V87H423.171ZM431.676 87V70.962H436.725V87H431.676ZM436.725 78.189L434.613 76.539C435.031 74.669 435.735 73.217 436.725 72.183C437.715 71.149 439.09 70.632 440.85 70.632C441.62 70.632 442.291 70.753 442.863 70.995C443.457 71.215 443.974 71.567 444.414 72.051L441.411 75.846C441.191 75.604 440.916 75.417 440.586 75.285C440.256 75.153 439.882 75.087 439.464 75.087C438.628 75.087 437.957 75.351 437.451 75.879C436.967 76.385 436.725 77.155 436.725 78.189ZM453.227 87.363C451.489 87.363 449.938 87.011 448.574 86.307C447.232 85.581 446.176 84.58 445.406 83.304C444.636 82.028 444.251 80.587 444.251 78.981C444.251 77.375 444.625 75.945 445.373 74.691C446.143 73.415 447.177 72.414 448.475 71.688C449.773 70.962 451.236 70.599 452.864 70.599C454.448 70.599 455.845 70.94 457.055 71.622C458.265 72.304 459.211 73.25 459.893 74.46C460.597 75.67 460.949 77.056 460.949 78.618C460.949 78.904 460.927 79.212 460.883 79.542C460.861 79.85 460.806 80.213 460.718 80.631L446.891 80.664V77.199L458.573 77.166L456.395 78.618C456.373 77.694 456.23 76.935 455.966 76.341C455.702 75.725 455.306 75.263 454.778 74.955C454.272 74.625 453.645 74.46 452.897 74.46C452.105 74.46 451.412 74.647 450.818 75.021C450.246 75.373 449.795 75.879 449.465 76.539C449.157 77.199 449.003 78.002 449.003 78.948C449.003 79.894 449.168 80.708 449.498 81.39C449.85 82.05 450.334 82.567 450.95 82.941C451.588 83.293 452.336 83.469 453.194 83.469C453.986 83.469 454.701 83.337 455.339 83.073C455.977 82.787 456.538 82.369 457.022 81.819L459.794 84.591C459.002 85.515 458.045 86.208 456.923 86.67C455.801 87.132 454.569 87.363 453.227 87.363Z" fill="#E9F7FB"/>
</svg>
