<svg width="959" height="234" viewBox="0 0 959 234" fill="none" xmlns="http://www.w3.org/2000/svg">
<rect width="959" height="234" rx="30" fill="#E9F7FB"/>
<path d="M26.56 180V59.98H53.25V180H26.56ZM128.555 180V132.91C128.555 128.603 127.195 125.147 124.475 122.54C121.868 119.82 118.525 118.46 114.445 118.46C111.611 118.46 109.118 119.083 106.965 120.33C104.811 121.463 103.111 123.163 101.865 125.43C100.618 127.583 99.9947 130.077 99.9947 132.91L89.9647 127.98C89.9647 121.52 91.3814 115.853 94.2147 110.98C97.048 106.107 100.958 102.367 105.945 99.76C111.045 97.04 116.768 95.68 123.115 95.68C129.235 95.68 134.618 97.1533 139.265 100.1C144.025 102.933 147.765 106.73 150.485 111.49C153.205 116.25 154.565 121.463 154.565 127.13V180H128.555ZM73.9847 180V97.38H99.9947V180H73.9847ZM211.05 181.87C202.55 181.87 194.843 180 187.93 176.26C181.13 172.407 175.747 167.193 171.78 160.62C167.813 154.047 165.83 146.68 165.83 138.52C165.83 130.36 167.813 123.05 171.78 116.59C175.747 110.13 181.13 105.03 187.93 101.29C194.73 97.4367 202.437 95.51 211.05 95.51C219.663 95.51 227.37 97.38 234.17 101.12C240.97 104.86 246.353 110.017 250.32 116.59C254.287 123.05 256.27 130.36 256.27 138.52C256.27 146.68 254.287 154.047 250.32 160.62C246.353 167.193 240.97 172.407 234.17 176.26C227.37 180 219.663 181.87 211.05 181.87ZM211.05 158.24C214.79 158.24 218.077 157.447 220.91 155.86C223.743 154.16 225.897 151.837 227.37 148.89C228.957 145.83 229.75 142.373 229.75 138.52C229.75 134.667 228.957 131.323 227.37 128.49C225.783 125.543 223.573 123.277 220.74 121.69C218.02 119.99 214.79 119.14 211.05 119.14C207.423 119.14 204.193 119.99 201.36 121.69C198.527 123.277 196.317 125.543 194.73 128.49C193.143 131.437 192.35 134.837 192.35 138.69C192.35 142.43 193.143 145.83 194.73 148.89C196.317 151.837 198.527 154.16 201.36 155.86C204.193 157.447 207.423 158.24 211.05 158.24ZM292.905 180L257.885 97.38H285.935L309.735 166.23H297.495L321.295 97.38H348.835L313.815 180H292.905ZM390.389 181.7C382.796 181.7 375.996 179.83 369.989 176.09C364.096 172.35 359.393 167.25 355.879 160.79C352.479 154.33 350.779 146.963 350.779 138.69C350.779 130.417 352.479 123.05 355.879 116.59C359.393 110.13 364.096 105.03 369.989 101.29C375.996 97.55 382.796 95.68 390.389 95.68C395.943 95.68 400.929 96.7567 405.349 98.91C409.883 101.063 413.566 104.067 416.399 107.92C419.233 111.66 420.819 115.967 421.159 120.84V156.54C420.819 161.413 419.233 165.777 416.399 169.63C413.679 173.37 410.053 176.317 405.519 178.47C400.986 180.623 395.943 181.7 390.389 181.7ZM395.659 158.24C401.213 158.24 405.689 156.427 409.089 152.8C412.489 149.06 414.189 144.357 414.189 138.69C414.189 134.837 413.396 131.437 411.809 128.49C410.336 125.543 408.183 123.277 405.349 121.69C402.629 119.99 399.456 119.14 395.829 119.14C392.203 119.14 388.973 119.99 386.139 121.69C383.419 123.277 381.209 125.543 379.509 128.49C377.923 131.437 377.129 134.837 377.129 138.69C377.129 142.43 377.923 145.773 379.509 148.72C381.096 151.667 383.306 153.99 386.139 155.69C388.973 157.39 392.146 158.24 395.659 158.24ZM413.169 180V157.73L417.079 137.67L413.169 117.61V97.38H438.669V180H413.169ZM456.983 180V97.38H482.993V180H456.983ZM482.993 134.61L472.113 126.11C474.266 116.477 477.893 108.997 482.993 103.67C488.093 98.3433 495.176 95.68 504.243 95.68C508.209 95.68 511.666 96.3033 514.613 97.55C517.673 98.6833 520.336 100.497 522.603 102.99L507.133 122.54C505.999 121.293 504.583 120.33 502.883 119.65C501.183 118.97 499.256 118.63 497.103 118.63C492.796 118.63 489.339 119.99 486.733 122.71C484.239 125.317 482.993 129.283 482.993 134.61ZM568.007 181.87C559.054 181.87 551.064 180.057 544.037 176.43C537.124 172.69 531.684 167.533 527.717 160.96C523.751 154.387 521.767 146.963 521.767 138.69C521.767 130.417 523.694 123.05 527.547 116.59C531.514 110.017 536.841 104.86 543.527 101.12C550.214 97.38 557.751 95.51 566.137 95.51C574.297 95.51 581.494 97.2667 587.727 100.78C593.961 104.293 598.834 109.167 602.347 115.4C605.974 121.633 607.787 128.773 607.787 136.82C607.787 138.293 607.674 139.88 607.447 141.58C607.334 143.167 607.051 145.037 606.597 147.19L535.367 147.36V129.51L595.547 129.34L584.327 136.82C584.214 132.06 583.477 128.15 582.117 125.09C580.757 121.917 578.717 119.537 575.997 117.95C573.391 116.25 570.161 115.4 566.307 115.4C562.227 115.4 558.657 116.363 555.597 118.29C552.651 120.103 550.327 122.71 548.627 126.11C547.041 129.51 546.247 133.647 546.247 138.52C546.247 143.393 547.097 147.587 548.797 151.1C550.611 154.5 553.104 157.163 556.277 159.09C559.564 160.903 563.417 161.81 567.837 161.81C571.917 161.81 575.601 161.13 578.887 159.77C582.174 158.297 585.064 156.143 587.557 153.31L601.837 167.59C597.757 172.35 592.827 175.92 587.047 178.3C581.267 180.68 574.921 181.87 568.007 181.87Z" fill="#1C2D41"/>
<path d="M658.762 181.87C648.902 181.87 640.402 180.283 633.262 177.11C626.235 173.823 619.775 168.893 613.882 162.32L631.222 145.15C635.075 149.57 639.325 153.027 643.972 155.52C648.732 157.9 654.229 159.09 660.462 159.09C666.129 159.09 670.492 158.07 673.552 156.03C676.725 153.99 678.312 151.157 678.312 147.53C678.312 144.243 677.292 141.58 675.252 139.54C673.212 137.5 670.492 135.743 667.092 134.27C663.805 132.797 660.122 131.38 656.042 130.02C652.075 128.66 648.109 127.13 644.142 125.43C640.175 123.617 636.492 121.407 633.092 118.8C629.805 116.08 627.142 112.737 625.102 108.77C623.062 104.69 622.042 99.59 622.042 93.47C622.042 86.1033 623.799 79.7567 627.312 74.43C630.939 69.1033 635.925 65.08 642.272 62.36C648.619 59.5267 655.929 58.11 664.202 58.11C672.589 58.11 680.239 59.5833 687.152 62.53C694.179 65.4767 699.959 69.5 704.492 74.6L687.152 91.77C683.525 88.03 679.842 85.2533 676.102 83.44C672.475 81.6267 668.339 80.72 663.692 80.72C659.045 80.72 655.362 81.6267 652.642 83.44C649.922 85.14 648.562 87.6333 648.562 90.92C648.562 93.98 649.582 96.4733 651.622 98.4C653.662 100.213 656.325 101.8 659.612 103.16C663.012 104.52 666.695 105.88 670.662 107.24C674.742 108.6 678.765 110.187 682.732 112C686.699 113.813 690.325 116.137 693.612 118.97C697.012 121.69 699.732 125.203 701.772 129.51C703.812 133.703 704.832 138.917 704.832 145.15C704.832 156.597 700.752 165.607 692.592 172.18C684.432 178.64 673.155 181.87 658.762 181.87ZM758.735 181.87C750.235 181.87 742.529 180 735.615 176.26C728.815 172.407 723.432 167.193 719.465 160.62C715.499 154.047 713.515 146.68 713.515 138.52C713.515 130.36 715.499 123.05 719.465 116.59C723.432 110.13 728.815 105.03 735.615 101.29C742.415 97.4367 750.122 95.51 758.735 95.51C767.349 95.51 775.055 97.38 781.855 101.12C788.655 104.86 794.039 110.017 798.005 116.59C801.972 123.05 803.955 130.36 803.955 138.52C803.955 146.68 801.972 154.047 798.005 160.62C794.039 167.193 788.655 172.407 781.855 176.26C775.055 180 767.349 181.87 758.735 181.87ZM758.735 158.24C762.475 158.24 765.762 157.447 768.595 155.86C771.429 154.16 773.582 151.837 775.055 148.89C776.642 145.83 777.435 142.373 777.435 138.52C777.435 134.667 776.642 131.323 775.055 128.49C773.469 125.543 771.259 123.277 768.425 121.69C765.705 119.99 762.475 119.14 758.735 119.14C755.109 119.14 751.879 119.99 749.045 121.69C746.212 123.277 744.002 125.543 742.415 128.49C740.829 131.437 740.035 134.837 740.035 138.69C740.035 142.43 740.829 145.83 742.415 148.89C744.002 151.837 746.212 154.16 749.045 155.86C751.879 157.447 755.109 158.24 758.735 158.24ZM825.784 180V90.24C825.784 83.5533 827.258 77.5467 830.204 72.22C833.264 66.78 837.514 62.53 842.954 59.47C848.394 56.2967 854.854 54.71 862.334 54.71C868.001 54.71 872.931 55.6733 877.124 57.6C881.431 59.4133 885.171 61.9633 888.344 65.25L872.024 81.57C870.891 80.4367 869.588 79.5867 868.114 79.02C866.754 78.34 865.111 78 863.184 78C859.671 78 856.894 79.02 854.854 81.06C852.814 83.1 851.794 85.8767 851.794 89.39V180H825.784ZM807.594 119.48V97.38H875.594V119.48H807.594ZM896.203 180V63.21H922.213V180H896.203ZM877.503 119.48V97.38H940.913V119.48H877.503Z" fill="#229EBF"/>
</svg>
